<?xml version="1.0" encoding="UTF-8"?> <svg xmlns="http://www.w3.org/2000/svg" viewBox="0 0 350 100"><defs><style>.a{fill:#fff;}</style></defs><path class="a" d="M88.58,64v-40a2.07,2.07,0,0,1,2.07-2.07h3.93a2.07,2.07,0,0,1,2.07,2.07v32.2a2.07,2.07,0,0,0,2.07,2.07h14a2.07,2.07,0,0,1,2.07,2.07V64A2.07,2.07,0,0,1,112.75,66H90.65A2.07,2.07,0,0,1,88.58,64Z"></path><path class="a" d="M126.71,52a1,1,0,0,0-1,1,.85.85,0,0,0,0,.23,9.06,9.06,0,0,0,9.15,7,23.43,23.43,0,0,0,8.42-2,1,1,0,0,1,1.31.52,1.3,1.3,0,0,1,.08.34l.26,4.49a1,1,0,0,1-.56,1,23.68,23.68,0,0,1-10,2.07c-11.42,0-17.11-7.51-17.11-16.35S122.77,34,132.5,34c7.95,0,13.88,5.36,13.88,13.7a19.25,19.25,0,0,1-.34,3.47,1,1,0,0,1-1,.82Zm.27-5.31h10.38a1,1,0,0,0,1-1,.53.53,0,0,0,0-.13c-.35-2.55-1.92-5.12-5.6-5.12A6.79,6.79,0,0,0,126,45.32a1,1,0,0,0,.62,1.28,1.33,1.33,0,0,0,.34,0Z"></path><path class="a" d="M178.49,65.85a.91.91,0,0,1-.9.81h-2c-3.05,0-5.21-1.07-6.51-2.79a.9.9,0,0,0-1.26-.17l0,0a14,14,0,0,1-8.92,2.93c-5.05,0-9.15-3.47-9.15-9.46,0-8.46,10.65-10.87,16.8-11.26a.91.91,0,0,0,.85-1v-.05c-.41-2.89-2-4.18-5.59-4.18a17.29,17.29,0,0,0-7.51,1.86.9.9,0,0,1-1.2-.45.84.84,0,0,1-.08-.27l-.49-4.47a.93.93,0,0,1,.52-.93A25.88,25.88,0,0,1,163.85,34c7.07,0,11.42,3.53,11.42,12.68v8.51c0,4.74.52,5,2.78,5h0a.92.92,0,0,1,.91.92.28.28,0,0,1,0,.09Zm-11-13.68a.91.91,0,0,0-.91-.91h-.09c-4.14.4-8.59,2.17-8.59,5.61,0,2.59,1.26,3.79,4.23,3.79a8.51,8.51,0,0,0,5-2,.9.9,0,0,0,.32-.69Z"></path><path class="a" d="M199.73,40.45a1.12,1.12,0,0,1-1.1.9h-2a6.55,6.55,0,0,0-5.58,2.87,1.06,1.06,0,0,0-.16.58V64.91A1.13,1.13,0,0,1,189.77,66H184.2a1.12,1.12,0,0,1-1.13-1.12V35.6a1.13,1.13,0,0,1,1.13-1.12h5.13a1.11,1.11,0,0,1,1.12,1h0a1.11,1.11,0,0,0,1.18,1.06,1.06,1.06,0,0,0,.61-.22A11.73,11.73,0,0,1,199,34h.7a1.13,1.13,0,0,1,1.13,1.12.91.91,0,0,1,0,.23Z"></path><path class="a" d="M225.81,66a.72.72,0,0,1-.72-.72h0V49.05c0-5.87-1.83-8.64-6.25-8.64a7.22,7.22,0,0,0-5.76,2.51.74.74,0,0,0-.18.47V65.31a.72.72,0,0,1-.72.72H205.8a.72.72,0,0,1-.72-.72h0V35.19a.71.71,0,0,1,.72-.71h5.94a.71.71,0,0,1,.71.67h0a.73.73,0,0,0,.77.67.75.75,0,0,0,.32-.1A12.27,12.27,0,0,1,219.47,34c9.83,0,13.45,6.21,13.45,15.08V65.3a.71.71,0,0,1-.71.72h0Z"></path><path class="a" d="M248.63,81.31h-5.44a1.11,1.11,0,0,1-1.11-1.11,1,1,0,0,1,.08-.42l6.21-15.4a1.16,1.16,0,0,0,0-.86L236.12,36a1.1,1.1,0,0,1,.58-1.46.89.89,0,0,1,.45-.09h6.24a1.11,1.11,0,0,1,1,.7l6.77,17a1.11,1.11,0,0,0,2.07,0l6.88-17a1.12,1.12,0,0,1,1-.7h6.29a1.11,1.11,0,0,1,1.12,1.1,1.13,1.13,0,0,1-.09.45L249.69,80.63A1.11,1.11,0,0,1,248.63,81.31Z"></path><path class="a" d="M273.42,63.78V24.1a2.25,2.25,0,0,1,2.25-2.25h3.58a2.25,2.25,0,0,1,2.25,2.25h0V56a2.25,2.25,0,0,0,2.24,2.25h13.69a2.24,2.24,0,0,1,2.25,2.24h0v3.33A2.25,2.25,0,0,1,297.44,66H275.67a2.24,2.24,0,0,1-2.25-2.24Z"></path><path class="a" d="M304.15,28.27v-5a1.43,1.43,0,0,1,1.43-1.43h5A1.44,1.44,0,0,1,312,23.28v5a1.44,1.44,0,0,1-1.44,1.43h-5a1.43,1.43,0,0,1-1.44-1.43Zm0,36.35V35.91a1.43,1.43,0,0,1,1.44-1.43h5A1.44,1.44,0,0,1,312,35.91V64.6A1.45,1.45,0,0,1,310.54,66h-5a1.43,1.43,0,0,1-1.44-1.43h0Z"></path><path class="a" d="M325,65.4h0a.68.68,0,0,1-.67.63h-6a.68.68,0,0,1-.68-.67v-46a.68.68,0,0,1,.68-.68h6.47a.67.67,0,0,1,.68.68V34.85a.68.68,0,0,0,.68.68.72.72,0,0,0,.32-.08A12.47,12.47,0,0,1,332.83,34c10.1,0,15.46,7.51,15.46,16.34s-5.36,16.36-15.46,16.36A12.22,12.22,0,0,1,326,64.88a.68.68,0,0,0-1,.52Zm.08-15.08c0,5.86,2.21,9.9,7.25,9.9s8-4,8-9.9-2.91-9.91-8-9.91S325.06,44.45,325.06,50.32Z"></path><path class="a" d="M3.78,21.5H54.05a2.07,2.07,0,0,1,2.07,2.07v5.8a2.07,2.07,0,0,1-2.07,2.07H13.42a2.07,2.07,0,0,0-2.07,2.07V51.76a2.07,2.07,0,0,1-2.07,2.07H3.78a2.07,2.07,0,0,1-2.07-2.07V23.57A2.07,2.07,0,0,1,3.78,21.5Z"></path><path class="a" d="M54.17,66.17H3.66a2,2,0,0,1-1.95-2v-6a1.94,1.94,0,0,1,1.94-2H44.54a2,2,0,0,0,2-2V35.78a2,2,0,0,1,1.95-2h5.73a2,2,0,0,1,1.95,2V64.24A2,2,0,0,1,54.17,66.17Z"></path></svg> 